<?xml version="1.0" encoding="UTF-8"?>
<svg id="_圖層_1" data-name="圖層 1" xmlns="http://www.w3.org/2000/svg" viewBox="0 0 317.44 440.32">
  <defs>
    <style>
      .cls-1 {
        fill: #57748d;
        fill-rule: evenodd;
      }
    </style>
  </defs>
  <path class="cls-1" d="m46.49,46.49C76.25,16.72,116.62,0,158.72,0s82.47,16.72,112.23,46.49c29.77,29.77,46.49,70.14,46.49,112.23v122.88c0,42.09-16.72,82.47-46.49,112.23s-70.14,46.48-112.23,46.48-82.46-16.72-112.23-46.48C16.72,364.07,0,323.7,0,281.6v-122.88c0-42.1,16.72-82.47,46.49-112.23h0Zm112.23-15.77c-33.95,0-66.5,13.49-90.51,37.49-24,24-37.49,56.56-37.49,90.51v122.88c0,33.95,13.49,66.51,37.49,90.51,24,24,56.56,37.49,90.51,37.49s66.51-13.48,90.51-37.49c24-24,37.49-56.56,37.49-90.51v-122.88c0-33.95-13.49-66.5-37.49-90.51-24-24-56.56-37.49-90.51-37.49h0Z"/>
  <path class="cls-1" d="m158.72,81.92c8.48,0,15.36,6.88,15.36,15.36v163.84c0,8.48-6.88,15.36-15.36,15.36s-15.36-6.88-15.36-15.36V97.28c0-8.48,6.88-15.36,15.36-15.36Z"/>
  <path class="cls-1" d="m86.42,188.82c6-6,15.72-6,21.72,0l50.58,50.58,50.58-50.58c6-6,15.72-6,21.72,0s6,15.72,0,21.72l-61.44,61.44c-6,6-15.72,6-21.72,0l-61.44-61.44c-6-6-6-15.72,0-21.72h0Z"/>
</svg>